<?xml version="1.0" encoding="UTF-8"?>
<svg width="1148px" height="533px" viewBox="0 0 1148 533" version="1.1" xmlns="http://www.w3.org/2000/svg" xmlns:xlink="http://www.w3.org/1999/xlink">
    <title>clouds</title>
    <g id="Symbols" stroke="none" stroke-width="1" fill="none" fill-rule="evenodd">
        <g id="back" transform="translate(0.000000, -71.000000)" fill="#FFFFFF">
            <g id="clouds" transform="translate(0.000000, 71.000000)">
                <path d="M1088,162.785046 C1088,162.785046 1090.017,150.973046 1100.968,151 C1109.024,151.018046 1111.287,156.124046 1111.287,156.124046 C1111.287,156.124046 1116.024,153.432046 1120.579,155.265046 C1126.519,157.656046 1127.226,162.644046 1127.226,162.644046 C1127.226,162.644046 1104.829,162.785046 1088,162.785046" id="cloud" opacity="0.100000001"></path>
                <path d="M1148,533 C1148,533 1144.91536,514.960624 1128.16426,515 C1115.84075,515.028236 1112.37994,522.826205 1112.37994,522.826205 C1112.37994,522.826205 1105.13292,518.714993 1098.16614,521.515275 C1089.07962,525.166347 1088,532.785894 1088,532.785894 C1088,532.785894 1122.25831,533 1148,533" id="cloud" opacity="0.1"></path>
                <path d="M991.653,227.34543 C991.653,227.34543 985.306,217.03543 970.669,218.07343 C958.173,218.95743 953.669,227.69843 953.669,227.69843 C953.669,227.69843 947.42,223.30643 940.338,226.15643 C931.099,229.87443 930,237.63143 930,237.63143 L1032.845,239.76843 C1032.845,239.76843 1025.919,227.49143 1012.669,232.07343 C1007.919,224.32343 996.169,224.07343 991.653,227.34543" id="cloud" opacity="0.100000001"></path>
                <path d="M469.520716,13.7212303 C469.520716,13.7212303 460.201867,-1.41620955 438.711401,0.107812034 C420.364412,1.40572637 413.75151,14.2395151 413.75151,14.2395151 C413.75151,14.2395151 404.576547,7.79105381 394.17855,11.9755061 C380.613584,17.4343811 379,28.8234326 379,28.8234326 L530,31.9610378 C530,31.9610378 519.831047,13.9355917 500.377014,20.6630165 C493.402927,9.28424258 476.151237,8.91718536 469.520716,13.7212303" id="cloud" opacity="0.100000001" transform="translate(454.500000, 15.980519) scale(-1, 1) translate(-454.500000, -15.980519) "></path>
                <path d="M1077.96032,265.893193 C1077.96032,265.893193 1073.22902,256.282606 1062.55556,257.042836 C1053.44218,257.691369 1051.07596,266.000332 1051.07596,266.000332 C1051.07596,266.000332 1045.70295,262.932057 1040.53855,265.021265 C1033.80159,267.746468 1033,273.433948 1033,273.433948 L1108,275 C1108,275 1099.69161,259.51273 1077.96032,265.893193" id="cloud" opacity="0.2"></path>
                <path d="M66.5412698,501.33979 C66.5412698,501.33979 59.5389569,486.923909 43.7422222,488.064255 C30.2544218,489.037053 26.7524263,501.500498 26.7524263,501.500498 C26.7524263,501.500498 18.8003628,496.898085 11.1570522,500.031898 C1.18634921,504.119703 0,512.650923 0,512.650923 L111,515 C111,515 98.7035828,491.769095 66.5412698,501.33979" id="cloud" opacity="0.2" transform="translate(55.500000, 501.500000) scale(-1, 1) translate(-55.500000, -501.500000) "></path>
            </g>
        </g>
    </g>
</svg>